<svg width="1280" height="790.9999999999999" xmlns="http://www.w3.org/2000/svg" preserveAspectRatio="xMidYMid meet">
 <metadata>Created by potrace 1.15, written by Peter Selinger 2001-2017</metadata>

 <g>
  <title>Layer 1</title>
  <g id="svg_1" stroke-width="20" stroke="#000000" fill="#932216" transform="translate(0,791) scale(0.10000000149011612,-0.10000000149011612) ">
   <path id="svg_2" d="m18.2857,7859.42859c19,-82 379,-1905 395,-1998c11,-63 81,-477 155,-920c75,-443 187,-1113 251,-1490c63,-377 127,-757 141,-845c15,-88 30,-162 34,-165c4,-3 14,-50 23,-105c20,-115 112,-662 257,-1520c56,-330 104,-619 107,-641l5,-42l207,-7c388,-12 572,37 912,243c201,122 369,199 544,249l100,28l295,-1c162,0 358,-6 435,-12c77,-7 333,-12 572,-12c443,0 576,-8 716,-45c108,-28 238,-124 437,-325c117,-118 157,-152 210,-177c120,-58 218,-67 373,-32c277,61 418,120 831,347c283,154 427,226 549,272c56,21 102,37 103,37c29,-48 274,-545 274,-557c0,-22 48,-64 99,-87c28,-14 67,-17 181,-17c186,0 257,14 820,155c151,38 302,76 335,84c208,52 870,200 1006,224c313,57 657,78 805,50c32,-7 69,-11 82,-11c39,3 193,-38 287,-75c120,-47 206,-94 420,-231c210,-135 310,-190 420,-228c74,-26 92,-28 232,-29c190,0 202,7 101,63c-214,118 -461,305 -662,502c-266,261 -482,537 -681,873l-58,97l-36,-5c-20,-4 -56,-10 -81,-15c-100,-20 -87,-33 -135,136c-76,272 -145,455 -243,651c-199,398 -408,654 -762,935c-65,52 -106,122 -150,256c-52,160 -100,399 -100,500c0,48 56,602 130,1292c17,152 30,283 30,291c0,14 -12,13 -92,-8c-58,-15 -124,-25 -174,-26c-76,-1 -87,2 -168,41c-48,23 -122,65 -164,94c-81,56 -252,218 -252,238c0,7 -21,35 -47,64c-68,75 -106,167 -158,382c-75,310 -136,404 -324,498c-183,92 -536,184 -786,206c-196,17 -321,-1 -710,-100c-286,-73 -466,-110 -537,-110c-82,0 -139,24 -290,122c-214,138 -195,133 -448,134c-286,2 -304,7 -472,141c-120,95 -168,118 -248,116c-36,-1 -128,-13 -205,-27c-130,-25 -208,-42 -595,-131c-256,-59 -485,-92 -779,-115c-309,-23 -474,-10 -826,66c-139,30 -334,98 -720,251c-159,63 -319,126 -355,140c-146,58 -365,124 -472,143c-62,11 -223,27 -358,35c-250,15 -357,30 -490,66c-74,20 -246,81 -282,100c-16,9 -18,7 -14,-13z"/>
  </g>
  <text font-weight="bold" stroke="#000" transform="matrix(6.103361495609424,0,0,7.433195521592717,-1430.2788774152611,-1360.8981726196268) " xml:space="preserve" text-anchor="start" font-family="sans-serif" font-size="24" id="svg_3" y="220.76022" x="260.24909" opacity="undefined" stroke-width="0" fill="#EBD2B8">&lt; / &gt;</text>
 </g>
</svg>