<svg width="1024" height="768" xmlns="http://www.w3.org/2000/svg">
 <metadata id="metadata7">image/svg+xml</metadata>

 <g>
  <title>Layer 1</title>
  <g transform="rotate(-3 758.2407226562476,579.6828002929689) " id="svg_24" stroke="null">
   <g id="svg_19" stroke="null"/>
   <g id="svg_20" fill="#0000ff" stroke="null"/>
   <g id="svg_23" stroke="null">
    <path d="m743.60298,538.63844c-6.62643,-0.97294 -14.52842,-4.9986 -20.41777,-10.40177c-9.57722,-8.78668 -16.15272,-10.51815 -30.97861,-8.15747c-14.82836,2.36106 -22.23495,2.69408 -44.10602,1.98302c-15.26593,-0.49632 -23.63344,0.65699 -33.81007,4.6601c-10.85187,4.26868 -21.69427,7.42479 -29.5685,8.607c-5.85888,0.87963 -14.63977,0.60613 -18.84133,-0.58683c-1.63015,-0.46287 -2.9639,-0.98501 -2.9639,-1.16035c0,-0.27088 -6.9848,-44.10201 -16.02393,-100.55344c-1.30638,-8.15858 -6.34172,-39.69024 -11.18966,-70.07029c-4.84798,-30.3801 -9.16066,-57.3466 -9.58373,-59.92559l-0.76924,-4.68907l2.77138,1.65216c5.52384,3.2931 10.57301,4.03875 27.07307,3.99819c16.72967,-0.04112 16.20777,-0.14661 38.63417,7.8092c23.0125,8.16371 26.59313,8.9958 38.71109,8.9958c9.87947,0 17.38402,-0.93901 40.58884,-5.0786c24.79151,-4.42266 28.93001,-5.07086 32.37514,-5.07086c4.04152,0 6.15054,0.55751 13.2904,3.51322c7.75946,3.21228 8.75093,3.5129 11.59165,3.51489c2.87069,0.00203 9.60667,0.97116 12.13681,1.74617c2.27735,0.69759 2.50175,0.78357 7.47761,2.86408c9.08802,3.79988 16.0021,3.71338 32.68172,-0.40887c13.74293,-3.39648 14.83307,-3.5594 23.71094,-3.54316c6.70995,0.01221 8.83213,0.17265 14.05096,1.06205c11.70097,1.99409 18.93592,4.74074 23.79839,9.03476c3.22697,2.84974 4.46899,5.1168 6.07527,11.08896c2.37234,8.82043 8.2765,15.91685 17.15433,20.61835c5.85134,3.09873 9.76875,4.10664 15.98168,4.11191c3.48887,0.00311 5.72177,-0.19185 7.22451,-0.63035c1.19624,-0.34904 2.24076,-0.57615 2.32118,-0.50466c0.08049,0.07149 -0.44554,3.35875 -1.16876,7.30503c-4.80054,26.19386 -6.27434,33.99315 -6.81455,36.06193c-1.55468,5.95412 -1.19137,10.27348 1.24772,14.83385c2.43893,4.56002 5.52631,6.93913 15.14338,11.66933c3.95062,1.94315 6.40977,3.38455 10.33942,6.06027c2.18776,1.48967 12.08105,10.57208 12.72857,11.68527c0.39308,0.67577 0.85781,1.22989 1.03274,1.23136c0.17512,0.00157 0.81022,0.6602 1.41184,1.46388c0.60161,0.80363 1.19435,1.54901 1.31729,1.65635c0.1229,0.10717 0.4775,0.54651 0.788,0.97591c0.6536,0.90392 8.43682,14.9245 8.43682,15.19804c0,0.96428 11.13547,21.11857 13.43061,24.30834c0.82417,1.14538 1.4985,2.16499 1.4985,2.26573c0,0.21677 4.96534,6.50743 6.46796,8.19447c1.60149,1.79804 6.26425,6.53386 8.6477,8.78322c4.42953,4.1804 14.39606,11.47461 21.32895,15.61012c1.56973,0.93639 2.95287,1.80352 3.07364,1.92699c0.12094,0.12357 0.71352,0.48019 1.31726,0.79275c0.60377,0.31277 2.62001,1.38879 4.48061,2.39161l3.38285,1.82331l-1.62646,0.23912c-2.86373,0.42091 -8.99774,0.25168 -12.1072,-0.33407c-5.86583,-1.10485 -9.72838,-2.696 -17.78695,-7.32723c-18.19182,-10.45479 -30.83922,-12.34317 -56.77122,-8.47648c-9.55895,1.42533 -21.61955,3.59545 -34.61354,6.22813c-28.53889,5.7822 -35.72253,6.78889 -46.80048,6.55844c-4.32654,-0.09007 -8.21222,-0.30195 -8.63483,-0.47118c-1.76624,-0.70691 -0.30665,-2.50307 6.20175,-7.63145c3.84606,-3.03056 5.32437,-5.08929 5.32437,-7.41461c0,-1.40114 -0.2454,-1.88199 -1.4952,-2.92998c-2.22434,-1.865 -4.76155,-2.35814 -11.89709,-2.31223c-4.66861,0.03141 -7.06918,0.24016 -9.97999,0.87286c-7.28526,1.58399 -13.64257,3.96722 -20.7564,7.78106c-1.93202,1.03577 -4.00672,2.13846 -4.61046,2.45036c-0.60373,0.31207 -1.78929,1.01762 -2.63454,1.56818c-1.743,1.13536 -8.04904,4.62327 -12.26827,6.78567c-8.01122,4.10588 -20.27025,6.68965 -27.03042,5.6971z" id="svg_21" fill="#891010" stroke="#000000"/>
    <path id="svg_22" d="m515.46932,298.20255c-1.0791,-4.05627 9.38951,-5.20116 11.1076,-1.39878l89.87929,564.10609c0.9611,5.31083 -10.64877,4.80195 -11.1076,1.39877l-89.87929,-564.10608z" fill="#000000" stroke="null"/>
   </g>
  </g>
  <g stroke="null" transform="rotate(-7.496082305908203 704.3419799804678,420.6060485839843) " id="svg_5">
   <path stroke="null" d="m648.5031,484.51492l58.97801,-61.24466l59.48685,61.24466l-118.46486,0zm-6.78709,-127.81772l62.62597,0l-62.62597,66.57306l0,-66.57306zm69.92581,0l-69.92581,74.56167l0,53.25605l125.25194,-127.81772l-55.32613,0l0,-0.00001l0,0.00001z" id="svg_4"/>
  </g>
  <g transform="rotate(-3 507.24072265624903,482.6828002929696) " id="svg_132" stroke="null">
   <g id="svg_127" stroke="null"/>
   <g id="svg_128" fill="#0000ff" stroke="null"/>
   <g id="svg_131" stroke="null">
    <path d="m492.60298,441.63844c-6.62643,-0.97294 -14.52842,-4.9986 -20.41777,-10.40177c-9.57722,-8.78668 -16.15272,-10.51815 -30.97861,-8.15747c-14.82836,2.36106 -22.23495,2.69408 -44.10602,1.98302c-15.26593,-0.49632 -23.63344,0.65699 -33.81007,4.6601c-10.85187,4.26868 -21.69427,7.42479 -29.5685,8.607c-5.85888,0.87963 -14.63977,0.60613 -18.84133,-0.58683c-1.63015,-0.46287 -2.9639,-0.98501 -2.9639,-1.16035c0,-0.27088 -6.9848,-44.10201 -16.02393,-100.55344c-1.30638,-8.15858 -6.34172,-39.69024 -11.18966,-70.07029c-4.84798,-30.3801 -9.16066,-57.3466 -9.58373,-59.92559l-0.76924,-4.68907l2.77138,1.65216c5.52384,3.2931 10.57301,4.03875 27.07307,3.99819c16.72967,-0.04112 16.20777,-0.14661 38.63417,7.8092c23.0125,8.16371 26.59313,8.9958 38.71109,8.9958c9.87947,0 17.38402,-0.93901 40.58884,-5.0786c24.79151,-4.42266 28.93001,-5.07086 32.37514,-5.07086c4.04152,0 6.15054,0.55751 13.2904,3.51322c7.75946,3.21228 8.75093,3.5129 11.59165,3.51489c2.87069,0.00203 9.60667,0.97116 12.13681,1.74617c2.27735,0.69759 2.50175,0.78357 7.47761,2.86408c9.08802,3.79988 16.0021,3.71338 32.68172,-0.40887c13.74293,-3.39648 14.83307,-3.5594 23.71094,-3.54316c6.70995,0.01221 8.83213,0.17265 14.05096,1.06205c11.70097,1.99409 18.93592,4.74074 23.79839,9.03476c3.22697,2.84974 4.46899,5.1168 6.07527,11.08896c2.37234,8.82043 8.2765,15.91685 17.15433,20.61835c5.85134,3.09873 9.76875,4.10664 15.98168,4.11191c3.48887,0.00311 5.72177,-0.19185 7.22451,-0.63035c1.19624,-0.34904 2.24076,-0.57615 2.32118,-0.50466c0.08049,0.07149 -0.44554,3.35875 -1.16876,7.30503c-4.80054,26.19386 -6.27434,33.99315 -6.81455,36.06193c-1.55468,5.95412 -1.19137,10.27348 1.24772,14.83385c2.43893,4.56002 5.52631,6.93913 15.14338,11.66933c3.95062,1.94315 6.40977,3.38455 10.33942,6.06027c2.18776,1.48967 12.08105,10.57208 12.72857,11.68527c0.39308,0.67577 0.85781,1.22989 1.03274,1.23136c0.17512,0.00157 0.81022,0.6602 1.41184,1.46388c0.60161,0.80363 1.19435,1.54901 1.31729,1.65635c0.1229,0.10717 0.4775,0.54651 0.788,0.97591c0.6536,0.90392 8.43682,14.9245 8.43682,15.19804c0,0.96428 11.13547,21.11857 13.43061,24.30834c0.82417,1.14538 1.4985,2.16499 1.4985,2.26573c0,0.21677 4.96534,6.50743 6.46796,8.19447c1.60149,1.79804 6.26425,6.53386 8.6477,8.78322c4.42953,4.1804 14.39606,11.47461 21.32895,15.61012c1.56973,0.93639 2.95287,1.80352 3.07364,1.92699c0.12094,0.12357 0.71352,0.48019 1.31726,0.79275c0.60377,0.31277 2.62001,1.38879 4.48061,2.39161l3.38285,1.82331l-1.62646,0.23912c-2.86373,0.42091 -8.99774,0.25168 -12.1072,-0.33407c-5.86583,-1.10485 -9.72838,-2.696 -17.78695,-7.32723c-18.19182,-10.45479 -30.83922,-12.34317 -56.77122,-8.47648c-9.55895,1.42533 -21.61955,3.59545 -34.61354,6.22813c-28.53889,5.7822 -35.72253,6.78889 -46.80048,6.55844c-4.32654,-0.09007 -8.21222,-0.30195 -8.63483,-0.47118c-1.76624,-0.70691 -0.30665,-2.50307 6.20175,-7.63145c3.84606,-3.03056 5.32437,-5.08929 5.32437,-7.41461c0,-1.40114 -0.2454,-1.88199 -1.4952,-2.92998c-2.22434,-1.865 -4.76155,-2.35814 -11.89709,-2.31223c-4.66861,0.03141 -7.06918,0.24016 -9.97999,0.87286c-7.28526,1.58399 -13.64257,3.96722 -20.7564,7.78106c-1.93202,1.03577 -4.00672,2.13846 -4.61046,2.45036c-0.60373,0.31207 -1.78929,1.01762 -2.63454,1.56818c-1.743,1.13536 -8.04904,4.62327 -12.26827,6.78567c-8.01122,4.10588 -20.27025,6.68965 -27.03042,5.6971z" id="svg_129" fill="#791010" stroke="#000000"/>
    <path id="svg_130" d="m264.46932,201.20255c-1.0791,-4.05627 9.38951,-5.20116 11.1076,-1.39878l89.87929,564.10609c0.9611,5.31083 -10.64877,4.80195 -11.1076,1.39877l-89.87929,-564.10608z" fill="#000000" stroke="null"/>
   </g>
  </g>
  <g stroke="null" id="svg_57" transform="rotate(-7.01356840133667 442.4932250976567,329.32238769531267) ">
   <g stroke="null" id="svg_9" transform="matrix(0.378722148186016,0,0,0.378722148186016,-175.76827664149585,-184.20284468142836) ">
    <g stroke="null" id="svg_10">
     <path stroke="null" d="m1622.0421,1374.51972c0,0 -28.02,-53.992 -26.985,-93.445c0.755,-28.193 64.324,-56.062 89.281,-96.529c24.914,-40.489 -3.106,-79.92 -3.106,-79.92s6.234,29.077 -10.376,59.147c-16.609,30.113 -77.914,47.779 -101.749,99.679s52.935,111.068 52.935,111.068z" fill="#010002" id="svg_11"/>
     <path stroke="null" d="m1726.9191,1210.49472c0,0 -95.494,36.347 -95.494,77.849c0,41.545 25.928,55.027 30.113,68.509c4.142,13.525 -7.269,36.347 -7.269,36.347s37.361,-25.95 31.105,-56.062c-6.234,-30.113 -35.29,-39.475 -18.659,-69.544c11.109,-20.169 60.204,-57.099 60.204,-57.099z" fill="#010002" id="svg_12"/>
     <path stroke="null" d="m1611.6881,1429.37372c88.246,-3.149 120.43,-30.997 120.43,-30.997c-57.076,15.553 -208.654,14.539 -209.711,3.128c-1.014,-11.411 46.701,-20.773 46.701,-20.773s-74.721,0 -80.955,18.68c-6.235,18.681 35.353,33.047 123.535,29.962z" fill="#010002" id="svg_13"/>
     <path stroke="null" d="m1739.3651,1473.11972c0,0 86.369,-18.421 77.827,-65.338c-10.354,-57.119 -70.58,-24.936 -70.58,-24.936s42.602,0 46.722,25.928c4.164,25.95 -53.969,64.346 -53.969,64.346z" fill="#010002" id="svg_14"/>
     <path stroke="null" d="m1696.8061,1448.22672c0,0 -21.765,5.716 -54.013,9.34c-43.228,4.853 -95.494,1.014 -99.657,-6.256c-4.098,-7.269 7.269,-11.411 7.269,-11.411c-51.921,12.468 -23.512,34.233 37.339,38.418c52.158,3.559 129.791,-15.574 129.791,-15.574l-20.729,-14.517z" fill="#010002" id="svg_15"/>
     <path stroke="null" d="m1562.9161,1493.56872c0,0 -23.555,0.669 -24.936,13.137c-1.359,12.382 14.496,23.512 72.65,26.964c58.133,3.451 98.988,-15.898 98.988,-15.898l-26.295,-15.962c0,0 -16.631,3.494 -42.236,6.946c-25.626,3.473 -78.173,-2.783 -80.243,-7.593c-2.113,-4.855 2.072,-7.594 2.072,-7.594z" fill="#010002" id="svg_16"/>
     <path stroke="null" d="m1789.1721,1549.63072c8.995,-9.707 -2.783,-17.321 -2.783,-17.321s4.142,4.853 -1.337,10.376c-5.544,5.522 -56.084,19.349 -137.061,23.512c-80.955,4.163 -168.856,-7.615 -171.639,-17.99c-2.696,-10.376 45.018,-18.659 45.018,-18.659c-5.522,0.69 -71.96,2.071 -74.074,20.082c-2.071,17.968 29.056,32.507 153.67,32.507c124.551,-0.021 179.254,-22.865 188.206,-32.507z" fill="#010002" id="svg_17"/>
     <path stroke="null" d="m1740.7461,1590.44272c-54.682,11.044 -220.734,4.077 -220.734,4.077s107.919,25.626 231.109,4.185c58.888,-10.268 62.318,-38.763 62.318,-38.763s-18.011,19.392 -72.693,30.501z" fill="#010002" id="svg_18"/>
    </g>
    <g stroke="null" id="svg_25"/>
    <g stroke="null" id="svg_26"/>
    <g stroke="null" id="svg_27"/>
    <g stroke="null" id="svg_28"/>
    <g stroke="null" id="svg_29"/>
    <g stroke="null" id="svg_30"/>
    <g stroke="null" id="svg_31"/>
    <g stroke="null" id="svg_32"/>
    <g stroke="null" id="svg_34"/>
    <g stroke="null" id="svg_35"/>
    <g stroke="null" id="svg_36"/>
    <g stroke="null" id="svg_37"/>
    <g stroke="null" id="svg_38"/>
    <g stroke="null" id="svg_39"/>
    <g stroke="null" id="svg_40"/>
   </g>
   <g stroke="null" id="svg_41" transform="matrix(0.378722148186016,0,0,0.378722148186016,-175.76827664149585,-184.20284468142836) "/>
   <g stroke="null" id="svg_42" transform="matrix(0.378722148186016,0,0,0.378722148186016,-175.76827664149585,-184.20284468142836) "/>
   <g stroke="null" id="svg_44" transform="matrix(0.378722148186016,0,0,0.378722148186016,-175.76827664149585,-184.20284468142836) "/>
   <g stroke="null" id="svg_45" transform="matrix(0.378722148186016,0,0,0.378722148186016,-175.76827664149585,-184.20284468142836) "/>
   <g stroke="null" id="svg_46" transform="matrix(0.378722148186016,0,0,0.378722148186016,-175.76827664149585,-184.20284468142836) "/>
   <g stroke="null" id="svg_47" transform="matrix(0.378722148186016,0,0,0.378722148186016,-175.76827664149585,-184.20284468142836) "/>
   <g stroke="null" id="svg_48" transform="matrix(0.378722148186016,0,0,0.378722148186016,-175.76827664149585,-184.20284468142836) "/>
   <g stroke="null" id="svg_49" transform="matrix(0.378722148186016,0,0,0.378722148186016,-175.76827664149585,-184.20284468142836) "/>
   <g stroke="null" id="svg_50" transform="matrix(0.378722148186016,0,0,0.378722148186016,-175.76827664149585,-184.20284468142836) "/>
   <g stroke="null" id="svg_51" transform="matrix(0.378722148186016,0,0,0.378722148186016,-175.76827664149585,-184.20284468142836) "/>
   <g stroke="null" id="svg_52" transform="matrix(0.378722148186016,0,0,0.378722148186016,-175.76827664149585,-184.20284468142836) "/>
   <g stroke="null" id="svg_53" transform="matrix(0.378722148186016,0,0,0.378722148186016,-175.76827664149585,-184.20284468142836) "/>
   <g stroke="null" id="svg_54" transform="matrix(0.378722148186016,0,0,0.378722148186016,-175.76827664149585,-184.20284468142836) "/>
   <g stroke="null" id="svg_55" transform="matrix(0.378722148186016,0,0,0.378722148186016,-175.76827664149585,-184.20284468142836) "/>
   <g stroke="null" id="svg_56" transform="matrix(0.378722148186016,0,0,0.378722148186016,-175.76827664149585,-184.20284468142836) "/>
  </g>
  <g transform="rotate(-3 412.240692138665,624.6828002929688) " id="svg_138" stroke="null">
   <g id="svg_133" stroke="null"/>
   <g id="svg_134" fill="#0000ff" stroke="null"/>
   <g id="svg_137" stroke="null">
    <path d="m397.60298,583.63844c-6.62643,-0.97294 -14.52842,-4.9986 -20.41777,-10.40177c-9.57722,-8.78668 -16.15272,-10.51815 -30.97861,-8.15747c-14.82836,2.36106 -22.23495,2.69408 -44.10602,1.98302c-15.26593,-0.49632 -23.63344,0.65699 -33.81007,4.6601c-10.85187,4.26868 -21.69427,7.42479 -29.5685,8.607c-5.85888,0.87963 -14.63977,0.60613 -18.84133,-0.58683c-1.63015,-0.46287 -2.9639,-0.98501 -2.9639,-1.16035c0,-0.27088 -6.9848,-44.10201 -16.02393,-100.55344c-1.30638,-8.15858 -6.34172,-39.69024 -11.18966,-70.07029c-4.84798,-30.3801 -9.16066,-57.3466 -9.58373,-59.92559l-0.76924,-4.68907l2.77138,1.65216c5.52384,3.2931 10.57301,4.03875 27.07307,3.99819c16.72967,-0.04112 16.20777,-0.14661 38.63417,7.8092c23.0125,8.16371 26.59313,8.9958 38.71109,8.9958c9.87947,0 17.38402,-0.93901 40.58884,-5.0786c24.79151,-4.42266 28.93001,-5.07086 32.37514,-5.07086c4.04152,0 6.15054,0.55751 13.2904,3.51322c7.75946,3.21228 8.75093,3.5129 11.59165,3.51489c2.87069,0.00203 9.60667,0.97116 12.13681,1.74617c2.27735,0.69759 2.50175,0.78357 7.47761,2.86408c9.08802,3.79988 16.0021,3.71338 32.68172,-0.40887c13.74293,-3.39648 14.83307,-3.5594 23.71094,-3.54316c6.70995,0.01221 8.83213,0.17265 14.05096,1.06205c11.70097,1.99409 18.93592,4.74074 23.79839,9.03476c3.22697,2.84974 4.46899,5.1168 6.07527,11.08896c2.37234,8.82043 8.2765,15.91685 17.15433,20.61835c5.85134,3.09873 9.76875,4.10664 15.98168,4.11191c3.48887,0.00311 5.72177,-0.19185 7.22451,-0.63035c1.19624,-0.34904 2.24076,-0.57615 2.32118,-0.50466c0.08049,0.07149 -0.44554,3.35875 -1.16876,7.30503c-4.80054,26.19386 -6.27434,33.99315 -6.81455,36.06193c-1.55468,5.95412 -1.19137,10.27348 1.24772,14.83385c2.43893,4.56002 5.52631,6.93913 15.14338,11.66933c3.95062,1.94315 6.40977,3.38455 10.33942,6.06027c2.18776,1.48967 12.08105,10.57208 12.72857,11.68527c0.39308,0.67577 0.85781,1.22989 1.03274,1.23136c0.17512,0.00157 0.81022,0.6602 1.41184,1.46388c0.60161,0.80363 1.19435,1.54901 1.31729,1.65635c0.1229,0.10717 0.4775,0.54651 0.788,0.97591c0.6536,0.90392 8.43682,14.9245 8.43682,15.19804c0,0.96428 11.13547,21.11857 13.43061,24.30834c0.82417,1.14538 1.4985,2.16499 1.4985,2.26573c0,0.21677 4.96534,6.50743 6.46796,8.19447c1.60149,1.79804 6.26425,6.53386 8.6477,8.78322c4.42953,4.1804 14.39606,11.47461 21.32895,15.61012c1.56973,0.93639 2.95287,1.80352 3.07364,1.92699c0.12094,0.12357 0.71352,0.48019 1.31726,0.79275c0.60377,0.31277 2.62001,1.38879 4.48061,2.39161l3.38285,1.82331l-1.62646,0.23912c-2.86373,0.42091 -8.99774,0.25168 -12.1072,-0.33407c-5.86583,-1.10485 -9.72838,-2.696 -17.78695,-7.32723c-18.19182,-10.45479 -30.83922,-12.34317 -56.77122,-8.47648c-9.55895,1.42533 -21.61955,3.59545 -34.61354,6.22813c-28.53889,5.7822 -35.72253,6.78889 -46.80048,6.55844c-4.32654,-0.09007 -8.21222,-0.30195 -8.63483,-0.47118c-1.76624,-0.70691 -0.30665,-2.50307 6.20175,-7.63145c3.84606,-3.03056 5.32437,-5.08929 5.32437,-7.41461c0,-1.40114 -0.2454,-1.88199 -1.4952,-2.92998c-2.22434,-1.865 -4.76155,-2.35814 -11.89709,-2.31223c-4.66861,0.03141 -7.06918,0.24016 -9.97999,0.87286c-7.28526,1.58399 -13.64257,3.96722 -20.7564,7.78106c-1.93202,1.03577 -4.00672,2.13846 -4.61046,2.45036c-0.60373,0.31207 -1.78929,1.01762 -2.63454,1.56818c-1.743,1.13536 -8.04904,4.62327 -12.26827,6.78567c-8.01122,4.10588 -20.27025,6.68965 -27.03042,5.6971z" id="svg_135" fill="#891010" stroke="#000000"/>
    <path id="svg_136" d="m169.46932,343.20255c-1.0791,-4.05627 9.38951,-5.20116 11.1076,-1.39878l89.87929,564.10609c0.9611,5.31083 -10.64877,4.80195 -11.1076,1.39877l-89.87929,-564.10608z" fill="#000000" stroke="null"/>
   </g>
  </g>
  <metadata id="svg_33">image/svg+xml</metadata>
  <style type="text/css">.st0{fill:#32de84;}</style>
  <metadata id="svg_43">image/svg+xml</metadata>
  <style type="text/css">.st0{fill:#32de84;}</style>
  <metadata>Created by potrace 1.15, written by Peter Selinger 2001-2017</metadata>
  <g id="svg_7" transform="rotate(-6.007811546325684 341.73696899413795,465.40093994140625) " stroke="null">
   <path id="svg_6" d="m395.6133,439.21863c-1.79366,-0.59789 -3.58733,-1.16256 -5.38099,-1.69402c0.29894,-1.22899 0.56467,-2.45798 0.8304,-3.68697c4.08557,-19.79673 1.39507,-35.70718 -7.67289,-40.95531c-8.7358,-5.01561 -22.98546,0.1993 -37.4012,12.75494c-1.42829,1.22899 -2.82336,2.52441 -4.152,3.81984c-0.89683,-0.86362 -1.82688,-1.72723 -2.75693,-2.55763c-15.11327,-13.41926 -30.25976,-19.06598 -39.32773,-13.78463c-8.70259,5.04883 -11.29344,20.02924 -7.63968,38.76305c0.36538,1.8601 0.76397,3.68697 1.22899,5.54707c-2.12582,0.59789 -4.21843,1.26221 -6.17817,1.95974c-17.73734,6.14496 -30.45906,15.84403 -30.45906,25.87525c0,10.36339 13.55212,20.75999 31.98699,27.07103c1.49472,0.49824 2.98944,0.99648 4.51737,1.42829c-0.49824,1.99296 -0.93005,3.9527 -1.32864,5.97888c-3.48768,18.43487 -0.76397,33.04991 7.93862,38.06552c8.96832,5.18169 24.04837,-0.13286 38.72984,-12.98745c1.16256,-1.0297 2.32512,-2.09261 3.48768,-3.22195c1.4615,1.42829 2.98944,2.79014 4.51737,4.11878c14.21644,12.22348 28.2668,17.17266 36.93618,12.15705c8.96832,-5.18169 11.89132,-20.89285 8.1047,-40.02526c-0.29894,-1.4615 -0.6311,-2.95622 -0.99648,-4.48416c1.06291,-0.29894 2.09261,-0.6311 3.1223,-0.96326c19.16562,-6.34425 33.04991,-16.60799 33.04991,-27.13746c0,-10.06444 -13.0871,-19.82994 -31.15659,-26.04133l0.00001,-0.00001zm-44.94123,-28.20037c12.35635,-10.76198 23.88229,-14.98041 29.13042,-11.95775c5.6135,3.22195 7.77254,16.24262 4.25165,33.34885c-0.23251,1.12934 -0.46502,2.22547 -0.76397,3.3216c-7.37395,-1.6608 -14.84755,-2.85657 -22.35436,-3.52089c-4.31808,-6.17817 -9.03475,-12.09062 -14.15001,-17.63769c1.29542,-1.22899 2.55763,-2.39155 3.88627,-3.55411l0,-0.00001zm-43.18078,62.81143c1.52794,2.92301 3.08909,5.8128 4.74989,8.66937c1.69402,2.88979 3.42125,5.77958 5.24813,8.60294c-5.18169,-0.56467 -10.33017,-1.39507 -15.41222,-2.4912c1.4615,-4.7831 3.28838,-9.73228 5.41421,-14.78111l-0.00001,0zm0,-16.80729c-2.09261,-4.94918 -3.85305,-9.79872 -5.31456,-14.48217c4.7831,-1.06291 9.86515,-1.92653 15.14649,-2.59085c-1.76045,2.75693 -3.48768,5.58029 -5.11526,8.43686c-1.62758,2.82336 -3.22195,5.71315 -4.71667,8.63616zm3.78662,8.40364c2.19226,-4.58381 4.58381,-9.06796 7.10822,-13.48569c2.52441,-4.41773 5.24813,-8.70259 8.1047,-12.92102c4.9824,-0.36538 10.06444,-0.56467 15.24614,-0.56467c5.18169,0 10.29696,0.1993 15.24614,0.56467c2.82336,4.18521 5.51385,8.47008 8.07148,12.85459c2.55763,4.38451 4.94918,8.86867 7.20787,13.41926c-2.22547,4.58381 -4.61702,9.10118 -7.17465,13.55212c-2.52441,4.41773 -5.21491,8.70259 -8.03827,12.95423c-4.94918,0.36538 -10.09766,0.53146 -15.31257,0.53146c-5.21491,0 -10.26374,-0.16608 -15.14649,-0.46502c-2.88979,-4.21843 -5.6135,-8.53651 -8.17113,-12.95423c-2.55763,-4.41773 -4.91597,-8.90188 -7.14144,-13.48569l0,-0.00001zm59.98807,17.00658c1.69402,-2.92301 3.28838,-5.87923 4.84953,-8.86867c2.12582,4.81632 3.98592,9.69907 5.6135,14.71468c-5.14848,1.16256 -10.36339,2.05939 -15.61151,2.65728c1.79366,-2.79014 3.48768,-5.64672 5.14848,-8.50329zm4.7831,-25.41023c-1.56115,-2.92301 -3.15552,-5.84601 -4.81632,-8.70259c-1.62758,-2.82336 -3.3216,-5.6135 -5.08205,-8.37043c5.34777,0.66432 10.46304,1.56115 15.24614,2.65728c-1.52794,4.91597 -3.3216,9.69907 -5.34777,14.41574zm-34.24568,-37.36798c3.48768,3.78662 6.77606,7.77254 9.83193,11.89132c-6.57677,-0.29894 -13.18675,-0.29894 -19.76351,0c3.25517,-4.28486 6.60998,-8.27078 9.93158,-11.89132zm-38.53054,-20.3614c5.58029,-3.25517 17.96985,1.39507 31.02373,12.95423c0.8304,0.73075 1.6608,1.52794 2.52441,2.32512c-5.14848,5.54707 -9.89836,11.45951 -14.24966,17.63769c-7.50681,0.66432 -14.94719,1.82688 -22.32114,3.45446c-0.43181,-1.69402 -0.79718,-3.42125 -1.16256,-5.14848c-3.1223,-16.07654 -1.06291,-28.20037 4.18521,-31.22303l0.00001,0.00001zm-8.13792,87.55734c-1.39507,-0.39859 -2.75693,-0.8304 -4.11878,-1.29542c-7.075,-2.22547 -15.11327,-5.74637 -20.92607,-10.36339c-3.35481,-2.32512 -5.6135,-5.91245 -6.24461,-9.93158c0,-6.07853 10.49625,-13.85107 25.64274,-19.13241c1.89331,-0.66432 3.81984,-1.26221 5.74637,-1.82688c2.25869,7.20787 4.9824,14.28287 8.13792,21.12537c-3.18873,6.94214 -5.94566,14.11679 -8.23756,21.42431l-0.00001,0zm38.72984,32.55167c-5.48064,5.01561 -11.82489,9.00153 -18.73382,11.72524c-3.68697,1.76045 -7.93862,1.92653 -11.72524,0.43181c-5.28134,-3.05587 -7.4736,-14.78111 -4.48416,-30.55871c0.36538,-1.8601 0.76397,-3.72019 1.22899,-5.54707c7.44038,1.59437 14.94719,2.69049 22.55365,3.25517c4.38451,6.21139 9.20083,12.15705 14.34931,17.73734c-1.06291,1.0297 -2.12582,2.02618 -3.18873,2.95622zm8.13792,-8.07148c-3.38803,-3.65376 -6.77606,-7.70611 -10.06444,-12.0574c3.18873,0.13286 6.47712,0.1993 9.79872,0.1993c3.42125,0 6.77606,-0.06643 10.09766,-0.23251c-3.05587,4.21843 -6.34425,8.23756 -9.83193,12.09062l-0.00001,-0.00001zm43.41329,9.9648c-0.29894,4.05235 -2.2919,7.83897 -5.48064,10.3966c-5.28134,3.05587 -16.54156,-0.93005 -28.69861,-11.35987c-1.39507,-1.19578 -2.79014,-2.4912 -4.21843,-3.81984c5.08205,-5.6135 9.7655,-11.55916 14.01715,-17.80377c7.60646,-0.6311 15.17971,-1.79366 22.6533,-3.48768c0.33216,1.36186 0.6311,2.72371 0.89683,4.05235c1.62758,7.17465 1.89331,14.64825 0.8304,22.0222l0,0.00001zm6.04531,-35.70718c-0.93005,0.29894 -1.8601,0.59789 -2.82336,0.86362c-2.32512,-7.24108 -5.18169,-14.31609 -8.47008,-21.1918c3.18873,-6.77606 5.87923,-13.75142 8.13792,-20.89285c1.72723,0.49824 3.38803,1.0297 4.9824,1.56115c15.47865,5.31456 26.34028,13.21996 26.34028,19.26527c0,6.51033 -11.59238,14.91398 -28.16716,20.39462l0,-0.00001zm-49.72433,-35.40824c8.40364,0 15.21292,6.80928 15.21292,15.21292c0,8.40364 -6.80928,15.21292 -15.21292,15.21292c-8.40364,0 -15.21292,-6.80928 -15.21292,-15.21292c0,-8.40364 6.80928,-15.21292 15.21292,-15.21292" stroke="null"/>
  </g>
 </g>
</svg>