<?xml version="1.0" standalone="no"?>
<!DOCTYPE svg PUBLIC "-//W3C//DTD SVG 20010904//EN"
 "http://www.w3.org/TR/2001/REC-SVG-20010904/DTD/svg10.dtd">
<svg version="1.0" xmlns="http://www.w3.org/2000/svg"
 width="1280.000000pt" height="791.000000pt" viewBox="0 0 1280.000000 791.000000"
 preserveAspectRatio="xMidYMid meet">
<metadata>
Created by potrace 1.15, written by Peter Selinger 2001-2017
</metadata>
<g transform="translate(0.000000,791.000000) scale(0.100000,-0.100000)"
fill="#932216" stroke="#000000" stroke-width="20">
<path d="M4 7888 c19 -82 379 -1905 395 -1998 11 -63 81 -477 155 -920 75
-443 187 -1113 251 -1490 63 -377 127 -757 141 -845 15 -88 30 -162 34 -165 4
-3 14 -50 23 -105 20 -115 112 -662 257 -1520 56 -330 104 -619 107 -641 l5
-42 207 -7 c388 -12 572 37 912 243 201 122 369 199 544 249 l100 28 295 -1
c162 0 358 -6 435 -12 77 -7 333 -12 572 -12 443 0 576 -8 716 -45 108 -28
238 -124 437 -325 117 -118 157 -152 210 -177 120 -58 218 -67 373 -32 277 61
418 120 831 347 283 154 427 226 549 272 56 21 102 37 103 37 29 -48 274 -545
274 -557 0 -22 48 -64 99 -87 28 -14 67 -17 181 -17 186 0 257 14 820 155 151
38 302 76 335 84 208 52 870 200 1006 224 313 57 657 78 805 50 32 -7 69 -11
82 -11 39 3 193 -38 287 -75 120 -47 206 -94 420 -231 210 -135 310 -190 420
-228 74 -26 92 -28 232 -29 190 0 202 7 101 63 -214 118 -461 305 -662 502
-266 261 -482 537 -681 873 l-58 97 -36 -5 c-20 -4 -56 -10 -81 -15 -100 -20
-87 -33 -135 136 -76 272 -145 455 -243 651 -199 398 -408 654 -762 935 -65
52 -106 122 -150 256 -52 160 -100 399 -100 500 0 48 56 602 130 1292 17 152
30 283 30 291 0 14 -12 13 -92 -8 -58 -15 -124 -25 -174 -26 -76 -1 -87 2
-168 41 -48 23 -122 65 -164 94 -81 56 -252 218 -252 238 0 7 -21 35 -47 64
-68 75 -106 167 -158 382 -75 310 -136 404 -324 498 -183 92 -536 184 -786
206 -196 17 -321 -1 -710 -100 -286 -73 -466 -110 -537 -110 -82 0 -139 24
-290 122 -214 138 -195 133 -448 134 -286 2 -304 7 -472 141 -120 95 -168 118
-248 116 -36 -1 -128 -13 -205 -27 -130 -25 -208 -42 -595 -131 -256 -59 -485
-92 -779 -115 -309 -23 -474 -10 -826 66 -139 30 -334 98 -720 251 -159 63
-319 126 -355 140 -146 58 -365 124 -472 143 -62 11 -223 27 -358 35 -250 15
-357 30 -490 66 -74 20 -246 81 -282 100 -16 9 -18 7 -14 -13z"/>
</g>
</svg>
